<svg xmlns="http://www.w3.org/2000/svg" width="206.174" height="29.218" viewBox="0 -7.029 206.174 29.218"><path fill="#F37033" d="M146.468-5.73c1.647 1.215 2.724 3.168 2.724 5.37 0 1.827-.682 3.58-1.87 4.783-.58.586 7.286-5.237 7.286-5.237s-8.523-5.197-8.14-4.915zM142.947 21.47h9.18l-2.808-3.596c-1.37 2.09-3.773 3.49-6.373 3.597z"/><path d="M27.35 3.574h-5.994v-5.217h-3.424v17.69h3.383v5.42H6.155v-5.42h3.342v-17.69H5.99v5.217H0V-7.023h27.35V3.574zM27.99 21.466V16.49h1.67V7.41h-1.633V2.474h7.14l1.14 2.432c.988-1.824 1.975-3.38 5.89-3.38V8.36c-3.42 0-5.358.874-5.358 4.216v3.913h1.898v4.976h-10.75zM44.346 4.07c1.52-.912 4.786-2.698 8.28-2.698 4.56 0 10.295 1.71 10.295 7.824v7.408h2.28v4.863h-8.128l-.91-1.71c-1.406 1.938-3.762 2.432-5.13 2.432-3.608 0-7.483-1.94-7.483-6.344 0-4.293 3.608-6.99 7.9-6.99 2.24 0 3.57 1.1 3.76 1.33v-1.33c0-1.71-1.557-2.128-3.608-2.128-2.24 0-4.216.95-5.66 1.747L44.347 4.07zM55.21 14.552c-.113-.19-.645-1.102-2.24-1.102-1.52 0-2.204.837-2.204 2.014 0 1.064.873 1.786 2.013 1.786 1.138 0 2.09-.683 2.43-1.254v-1.443zM77.11 15.313c.037-.798.493-2.698 1.138-4.18L80.07 7.3h-2.013V2.473h9.8v4.825h-1.974L79.31 21.466h-5.886L66.358 7.298h-1.784V2.473h11.548v4.825h-1.9l1.748 4.027c.494 1.444.91 3.19.988 3.988h.15zM108.078 18.846c-2.81 2.43-5.85 3.305-9.8 3.305-4.71 0-10.03-3-10.03-10.293 0-6.23 4.483-9.915 10.22-9.915 4.52 0 7.976 2.317 9.077 5.508.456 1.33.874 4.254.075 6.42H95.656c.228 1.025.722 3.115 3.912 3.115 1.292 0 3.267-.113 5.317-1.824l3.193 3.686zm-6.572-8.737c-.038-1.444-.38-3.04-2.81-3.04-2.317 0-2.85 2.09-2.926 3.04h5.736zM109.79 21.466V16.49h1.635V-2.123h-1.596v-4.9h8.812V16.49h2.24v4.976h-11.09zM135.714 21.47l-10.62-5.307h2.364V-1.77h-2.364v-5.26h17.443c3.682 0 6.667 2.986 6.667 6.668 0 3.24-2.102 5.986-5.145 6.592 3.85.31 6.493 3.616 6.493 7.586 0 4.174-3.5 7.488-7.558 7.656h-7.28zM154.378 21.466V16.49h1.596V7.41h-1.596V2.474h8.813V16.49h1.825v4.976h-10.637zm5.167-28.413c2.62 0 4.178 2.127 4.178 3.875 0 2.09-1.48 3.836-4.178 3.836-2.394 0-4.103-2.013-4.103-3.836 0-1.748 1.443-3.875 4.103-3.875zM167.885 21.466V16.49h1.672V7.41h-1.634V2.474h7.142l1.14 2.432c.988-1.824 1.974-3.38 5.888-3.38V8.36c-3.418 0-5.357.874-5.357 4.216v3.913h1.9v4.976h-10.75zM194.892-2.085v-4.938h9.458V16.53h1.824v4.937h-8.89l-.646-1.406c-.492.457-2.166 1.75-4.786 1.75-5.357 0-8.813-4.748-8.813-10.028 0-5.925 4.14-9.686 8.812-9.686 2.697 0 4.064.988 4.786 1.443v-5.624h-1.746zm-.95 18.538c1.482 0 2.85-1.862 2.698-4.863 0-2.583-1.292-4.56-2.735-4.56-1.595 0-2.697 1.863-2.697 4.75 0 2.28 1.064 4.673 2.735 4.673z"/><circle fill="#FFF" cx="139.334" cy=".11" r="4.306"/><circle cx="141.048" cy="-.646" r="2.133"/><path fill="#27AAE1" d="M116.393 9.507h19.32V21.47h-19.32c-1.115 0-2.02-.894-2.02-2 0-1.104.903-2 2.02-2v.04c-1.115 0-2.02-.894-2.02-2 0-1.104.903-2 2.02-2-1.115 0-2.02-.896-2.02-2 0-1.107.904-2.003 2.02-2.003z"/><path fill="#FFDE17" d="M125.15 8.04h14.27v9.256h-14.27c-.863 0-1.562-.693-1.562-1.547 0-.856.7-1.55 1.563-1.55v.03c-.863 0-1.562-.693-1.562-1.55 0-.854.7-1.546 1.563-1.546-.863 0-1.562-.694-1.562-1.55 0-.852.7-1.545 1.563-1.545z"/></svg>